<svg width="577" height="1125" viewBox="0 0 577 1125" fill="none" xmlns="http://www.w3.org/2000/svg">
<g clip-path="url(#clip0_151_159)">
<path d="M288.456 576.733C447.766 576.733 576.912 447.627 576.912 288.366C576.912 129.106 447.766 0 288.456 0C129.146 0 0 129.106 0 288.366C0 447.627 129.146 576.733 288.456 576.733Z" fill="#F38CB3"/>
<path d="M298.979 836.103C298.979 836.103 304.461 661.598 548.349 684.141C548.349 684.141 571.783 882.779 309.414 930.163L298.979 836.103Z" fill="#F38CB3"/>
<path d="M304.992 921.941C304.992 921.941 302.251 848.922 180.307 858.292C180.307 858.292 168.634 941.39 299.775 961.28L304.992 921.941Z" fill="#F38CB3"/>
<path d="M295.707 576.821C295.707 576.821 113.808 485.767 116.107 433.876C118.407 381.984 271.92 526.432 271.92 526.432C271.92 526.432 252.465 251.149 288.544 219.501C324.623 187.854 306.142 505.216 306.142 505.216C306.142 505.216 427.643 373.762 475.041 399.31C522.439 424.859 306.142 576.821 306.142 576.821" fill="#2EBCED"/>
<path d="M309.325 547.118H288.456V1124.91H309.325V547.118Z" fill="#2EBCED"/>
</g>
<defs>
<clipPath id="clip0_151_159">
<rect width="577" height="1125" fill="white"/>
</clipPath>
</defs>
</svg>
