<svg width="251" height="280" viewBox="0 0 251 280" fill="none" xmlns="http://www.w3.org/2000/svg">
<g filter="url(#filter0_d_93_22983)">
<path d="M126.5 260C188.632 260 239 212.767 239 154.503C239 96.2385 188.632 49.0059 126.5 49.0059C64.368 49.0059 14 96.2385 14 154.503C14 212.767 64.368 260 126.5 260Z" fill="#EE417D" stroke="white" stroke-width="8" stroke-miterlimit="10"/>
<path d="M61.625 8.96648C68.5845 5.2419 76.337 3.65716 82.8861 8.65311C84.9851 10.2558 86.0207 12.8075 85.7968 15.3681C85.4609 19.2986 86.2073 24.6617 94.277 19.218C107.049 10.596 136.976 12.0464 155.159 20.4626C155.159 20.4626 181.728 -17.795 193.436 15.8337C193.436 15.8337 197.364 9.63798 200.088 12.0643C202.812 14.4907 211.964 24.8049 211.824 27.9386C211.684 31.0723 207.477 34.9938 204.211 42.4519C204.211 42.4519 203.279 68.139 197.047 75.3107C197.047 75.3107 200.657 82.6076 197.914 89.1973C197.914 89.1973 219.931 96.6823 204.827 124.626C204.827 124.626 219.623 151.262 193.306 165.721C193.306 165.721 190.973 183.655 184.742 189.484C184.742 189.484 189.723 203.531 184.742 209.808L187.074 229.684H67.3997L72.0177 205.922C72.0177 205.922 62.7818 200.022 67.3997 183.252C67.3997 183.252 62.3154 175.83 59.6939 160.618C59.6939 160.618 35.4101 150.34 52.0813 118.063C52.0813 118.063 27.5364 107.265 51.5495 78.3637L41.8193 53.2765C40.5785 50.1339 40.7371 43.6606 41.017 40.3031C42.1178 27.2492 49.721 15.3592 61.6437 8.97543L61.625 8.96648Z" fill="white"/>
<path d="M67.6522 228.386L186.776 227.025L189.034 240.885C189.034 240.885 149.133 257.036 120.017 251.951C120.017 251.951 87.5326 250.465 64.9561 237.912" fill="white"/>
<path d="M140.139 245.746C140.139 245.746 96.9916 246.454 79.089 239.47C77.1019 238.7 76.0944 236.569 76.7381 234.617L87.3173 202.547C87.7838 201.141 87.392 199.601 86.3004 198.553L80.4977 192.984C79.5275 192.053 79.1077 190.728 79.3596 189.439L81.6639 177.916C81.7945 177.28 81.7572 176.618 81.5519 176L75.9264 158.532C75.7492 157.977 75.4413 157.467 75.0402 157.037L63.1642 144.502C62.4738 143.777 62.0913 142.819 62.0913 141.834V132.344C62.0913 131.762 62.222 131.18 62.4832 130.651L67.0824 121.295C67.9034 119.621 67.409 117.615 65.8883 116.478L63.6213 114.786C63.1269 114.41 61.457 114.177 61.1771 113.631L58.6676 105.895C58.1824 104.937 58.1265 103.827 58.4996 102.824L62.5018 92.2057C62.7444 91.57 63.1455 90.997 63.6866 90.5583L68.062 86.9322C69.5267 85.7146 69.9092 83.6911 68.9949 82.0527C65.3472 75.5615 56.7644 59.6246 57.8093 55.121C57.8653 54.8883 52.9022 43.034 52.8928 42.8013L57.7253 36.3728C57.7253 35.7997 57.8466 35.2357 58.0891 34.7164L65.5245 18.8063C65.8883 18.0274 66.5134 17.3738 67.297 16.9619L71.3272 14.8221C73.5102 13.6671 76.253 14.6072 77.1672 16.8366L76.906 19.0928C77.0926 19.5584 76.6168 20.1046 76.6168 20.6059L75.9171 34.224L77.3165 44.5919C77.3445 45.0933 77.9136 45.8185 78.1375 46.2751L79.4809 52.6678C80.3018 54.3958 84.3133 53.1155 86.2445 52.6678L94.3701 50.7518C96.8237 50.1698 98.1671 47.6181 97.1969 45.3798L95.9468 42.4968C95.3963 41.2255 95.5643 39.784 96.4039 38.6648L100.005 33.839C101.199 32.2363 103.447 31.726 105.267 32.6303L114.456 37.2233C116.835 38.4141 119.745 37.1427 120.38 34.6358L121.107 31.7439C121.481 30.2487 122.721 29.0937 124.298 28.7893L126.63 28.3327C127.983 28.0641 129.382 28.467 130.362 29.4071C133.049 31.9677 138.31 36.9726 139.001 37.4113C139.784 37.9038 146.259 34.2329 148.376 33.0063C148.824 32.7467 149.319 32.5766 149.841 32.496L154.3 31.7976C156.81 31.4037 159.096 33.266 159.096 35.7102V40.2943C159.096 40.5629 159.124 40.8226 159.18 41.0822L159.739 48.603C160.066 50.1609 157.454 52.2828 159.077 52.5962L169.936 52.7036C172.1 53.1334 174.237 51.8441 174.769 49.7849L175.319 47.6629C175.403 47.3495 175.44 47.0272 175.44 46.7049V17.1768C175.44 15.6368 176.373 14.2312 177.829 13.5865L180.077 12.5838C181.542 11.9302 181.849 13.2553 183.072 14.267L189.975 21.743C190.684 22.325 191.169 23.1308 191.346 24.0172L198.166 48.2359C198.297 48.8806 198.25 49.5521 198.045 50.1788L190.115 72.016L188.417 81.3722C187.904 82.6794 188.147 84.1477 189.061 85.24L189.872 88.8124C190.124 89.1168 194.602 92.8235 194.752 93.1816L200.293 105.179C200.825 106.459 200.638 107.91 199.78 109.02L193.688 116.899C192.942 117.866 192.69 119.11 193.016 120.274L197.364 136.041C197.55 136.704 197.55 137.402 197.364 138.065L194.658 147.976C194.211 149.623 192.718 150.805 190.945 150.922L187.559 151.146C185.394 151.289 183.715 153.017 183.715 155.094V156.571C183.715 156.858 183.687 157.144 183.622 157.422L179.069 177.361C178.995 177.683 178.967 178.014 178.976 178.337L179.181 184.112C179.191 184.416 179.237 184.712 179.321 184.998L177.278 188.159C175.058 188.821 179.47 194.077 179.498 194.211L182.064 196.646C182.335 198.276 181.523 199.905 180.021 200.72C178.547 201.526 177.726 203.12 177.968 204.731L181.402 235.253C181.7 237.277 181.719 240.67 179.648 241.153C173.574 242.586 160.103 245.693 140.195 245.746H140.139Z" fill="#F38CB3"/>
<path d="M181.504 157.404L174.162 180.137C174.162 180.137 161.046 201.66 154.077 183.243C154.077 183.243 124.942 211.742 103.149 202.332C81.3561 192.913 79.6022 177.907 79.6022 177.907C79.6022 177.907 63.9479 165.462 75.1056 147.242C75.1056 147.242 55.9902 168.229 60.6174 120.051C60.6174 120.051 65.5619 150.662 85.918 143.267C85.918 143.267 87.504 176.913 104.25 160.609C104.25 160.609 107.487 172.741 120.697 172.741C133.907 172.741 139.747 169.599 145.979 165.122C152.211 160.645 149.916 183.763 181.504 157.404Z" fill="#EF578F"/>
<path d="M93.7549 55.7209L86.133 61.8987C86.133 61.8987 77.4476 81.7841 93.2978 82.8764C109.148 83.9777 102.244 77.2537 102.244 77.2537C102.244 77.2537 76.9345 77.1642 93.7549 55.7209Z" fill="white"/>
<path d="M103.149 83.3598C103.149 83.3598 88.8289 88.0961 86.963 81.1036C85.0972 74.111 86.963 73.7887 86.963 73.7887C86.963 73.7887 91.7676 82.366 97.5423 79.3577C103.317 76.3493 106.638 69.2314 106.638 69.2314C106.638 69.2314 108.709 99.3773 140.69 74.5587V81.1036L127.349 91.8028L113.411 93.7815L103.149 83.3598Z" fill="#EF578F"/>
<path d="M147.108 89.1885C147.108 89.1885 155.047 76.1794 154.077 73.7888C154.077 73.7888 156.959 80.4322 154.776 82.8765C152.593 85.3207 147.108 89.1885 147.108 89.1885Z" fill="#EF578F"/>
<path d="M184.508 116.254C184.508 116.254 195.983 143.67 180.478 151.262H191.132L195.246 138.056L184.508 116.263V116.254Z" fill="#EF578F"/>
<path d="M76.0198 62.5611C76.0198 62.5611 62.2314 46.2392 60.804 31.9766C59.3766 17.7139 55.3931 78.2474 67.2598 82.8762L70.8235 68.8732L76.0105 62.5611H76.0198Z" fill="#EF578F"/>
<path d="M174.162 58.7918L185.059 33.3196L181.915 19.2271C181.915 19.2271 200.937 41.1985 187.858 72.0069L174.153 58.8008L174.162 58.7918Z" fill="#EF578F"/>
<path d="M93.2977 215.779C93.2977 215.779 71.5328 249.148 101.125 232.97C101.125 232.97 88.7824 240.884 93.2977 215.779Z" fill="#EF578F"/>
<path d="M146.203 224.25C146.203 224.25 153.238 255.3 161.149 225.19C161.149 225.19 158.555 238.226 146.203 224.25Z" fill="#EF578F"/>
<path d="M96.9824 210.551C96.9824 210.551 92.9056 228.565 107.925 227.025C107.925 227.025 93.3347 239.828 91.8514 231.287C90.3587 222.745 96.9917 210.542 96.9917 210.542L96.9824 210.551Z" fill="white"/>
<path d="M161.829 214.374C161.829 214.374 157.081 226.64 145.895 216.979C145.895 216.979 151.772 232.567 156.726 228.762C161.68 224.957 161.839 214.374 161.839 214.374H161.829Z" fill="white"/>
<path d="M93.2976 215.779C93.2976 215.779 90.3403 240.294 107.916 227.025C107.916 227.025 96.1896 239.989 91.2265 233.937C86.2634 227.884 93.2976 215.779 93.2976 215.779Z" fill="#231F20"/>
<path d="M147.043 218.815C147.043 218.815 156.894 235.611 163.145 218.125C163.145 218.125 160.99 232.343 154.431 231.197C147.873 230.051 147.043 218.824 147.043 218.824V218.815Z" fill="#231F20"/>
<path d="M87.0564 182.419C85.4611 186.045 84.9853 190.602 89.5659 194.193C90.5828 194.99 91.0959 196.234 90.9186 197.488L85.3585 236.631C85.0879 238.521 81.0577 241.842 79.08 241.717L81.3656 239.765C79.0706 239.613 77.4474 237.554 77.9325 235.396L84.7521 204.785C85.0599 203.424 84.5188 202.018 83.3714 201.158L74.9192 194.873C73.5478 193.852 73.072 192.062 73.781 190.54L78.7721 179.733C79.2945 178.605 80.386 177.808 81.6548 177.62L83.0728 177.414C86.0022 176.984 88.2038 179.814 87.0564 182.428V182.419Z" fill="white"/>
<path d="M67.0359 17.3469C67.0359 17.3469 56.41 38.2082 56.5872 50.2414C56.7738 63.573 55.4304 30.8933 55.4304 30.8933L67.3904 14.5714L72.5774 14.5266" fill="white"/>
<path d="M175.72 13.5774L183.305 16.72C183.305 16.72 190.274 33.5612 178.557 56.0699" fill="white"/>
<path d="M103.149 157.878C103.149 157.878 103.541 158.057 104.26 158.352C109.736 160.618 134.234 169.786 148.004 159.194C148.004 159.194 136.165 172.928 125.577 174.71C116.602 176.223 107.002 163.187 104.288 159.194C103.802 158.478 103.541 158.057 103.541 158.057" fill="#D4D4D8"/>
<path d="M107.926 88.2036C107.926 88.2036 84.7894 81.6856 81.9067 91.7939C79.024 101.902 77.6246 108.178 77.6246 108.178C77.6246 108.178 64.937 109.083 65.0303 121.277C65.1236 133.472 81.9067 133.078 81.9067 133.078C81.9067 133.078 95.3313 130.15 96.9919 135.531C98.6525 140.912 100.966 155.04 100.966 155.04C100.966 155.04 110.23 170.073 115.473 171.407C120.716 172.741 125.595 174.711 125.595 174.711L120.716 89.6898L115.473 93.4861L107.935 88.2036H107.926Z" fill="white"/>
<path d="M144.515 88.4449C144.515 88.4449 167.651 81.9269 170.533 92.0352C173.416 102.144 174.816 108.42 174.816 108.42C174.816 108.42 187.503 109.324 187.41 121.519C187.317 133.713 170.533 133.319 170.533 133.319C170.533 133.319 157.109 130.391 155.448 135.772C153.788 141.153 151.474 155.282 151.474 155.282C151.474 155.282 142.21 170.314 136.967 171.648C131.724 172.982 112.338 169.607 112.338 169.607L120.809 93.6468L140.68 85.4724L144.505 88.4449H144.515Z" fill="white"/>
<path d="M115.454 150.044L126.155 143.15L136.939 149.426C136.939 149.426 131.808 158.845 127.06 157.798C122.311 156.75 120.697 155.703 120.697 155.703L115.454 150.044Z" fill="#2EBCED"/>
<path d="M119.196 146.705L126.164 142.219L132.937 147.269C132.937 147.269 125.586 155.559 119.205 147.824" fill="white"/>
<path d="M93.2979 38.0651L99.9309 30.8845L123.552 46.7588C123.552 46.7588 100.285 42.0046 99.9309 49.4627C99.5764 56.9208 93.2979 38.0561 93.2979 38.0561V38.0651Z" fill="white"/>
<path d="M102.244 52.9634L80.7592 56.0791L69.9187 69.2316L69.1631 85.464H75.7681C75.7681 85.464 75.9547 67.5304 102.244 52.9634Z" fill="white"/>
<path d="M113.411 58.7917C113.411 58.7917 97.71 90.961 143.488 71.9978C143.488 71.9978 118.103 105 112.347 91.7936C106.582 78.5875 91.8513 77.6742 91.8513 77.6742C91.8513 77.6742 92.6816 69.464 113.42 58.7827L113.411 58.7917Z" fill="white"/>
<path d="M103.149 155.702C103.149 155.702 126.594 175.785 150.448 156.893L142.416 167.521C142.416 167.521 133.077 172.579 131.034 172.884C128.991 173.188 115.464 171.407 115.464 171.407L103.159 155.702H103.149Z" fill="#D4D4D8"/>
<path d="M120.93 127.518C120.109 127.813 109.073 120.865 109.073 120.865C109.073 120.865 110.444 114.491 113.644 113.756C116.844 113.022 125.809 122.423 125.809 122.423C125.809 122.423 133.189 112.395 139.262 113.712C145.335 115.028 143.721 120.561 143.721 120.561L127.311 128.708L120.93 127.518Z" fill="#D4D4D8"/>
<path d="M104.063 81.1037L102.244 89.1885C102.244 89.1885 98.5313 96.5213 113.411 99.6639C128.291 102.807 141.604 91.794 141.604 91.794C141.604 91.794 144.328 97.0943 154.991 89.1885C165.654 81.2827 153.741 85.464 153.741 85.464L147.108 87.8008L142.07 84.1926C142.07 84.1926 130.157 90.63 129.457 90.6569C128.758 90.6837 113.411 93.7726 113.411 93.7726L104.073 81.0947L104.063 81.1037Z" fill="#D4D4D8"/>
<path d="M164.097 120.552C172.974 120.552 180.171 113.645 180.171 105.125C180.171 96.6052 172.974 89.6985 164.097 89.6985C155.219 89.6985 148.022 96.6052 148.022 105.125C148.022 113.645 155.219 120.552 164.097 120.552Z" fill="black"/>
<path d="M113.57 115.655C113.57 115.655 114.036 114.159 125.875 124.026C125.875 124.026 136.93 115.064 140.204 114.912C143.479 114.759 144.561 121.931 144.561 121.931C144.561 121.931 146.586 125.521 130.232 130.302C130.232 130.302 128.207 146.445 136.771 146.293C145.335 146.141 148.022 139.417 148.022 139.417L148.918 140.76C148.918 140.76 148.918 152.865 133.814 151.074C133.814 151.074 129.607 149.731 126.341 146.588C126.341 146.588 113.57 157.35 106.097 146.141C106.097 146.141 104.381 143.598 104.073 141.207C103.765 138.817 114.036 151.074 121.509 143.446C121.509 143.446 124.783 140.393 123.533 130.741C123.533 130.741 114.661 128.95 111.853 126.56C109.045 124.169 108.737 122.074 108.737 122.074C108.737 122.074 109.092 113.407 113.56 115.646L113.57 115.655Z" fill="black"/>
<path d="M158.956 106.021C161.151 106.021 162.931 103.98 162.931 101.463C162.931 98.9466 161.151 96.9062 158.956 96.9062C156.762 96.9062 154.982 98.9466 154.982 101.463C154.982 103.98 156.762 106.021 158.956 106.021Z" fill="white"/>
<path d="M165.229 113.374C168.257 112.397 170.479 110.941 170.192 110.12C169.904 109.3 167.217 109.427 164.189 110.404C161.161 111.381 158.939 112.838 159.226 113.658C159.514 114.478 162.201 114.351 165.229 113.374Z" fill="white"/>
<path d="M92.7565 120.05C101.634 120.05 108.831 113.144 108.831 104.624C108.831 96.104 101.634 89.1973 92.7565 89.1973C83.879 89.1973 76.6824 96.104 76.6824 104.624C76.6824 113.144 83.879 120.05 92.7565 120.05Z" fill="black"/>
<path d="M97.8968 105.519C100.092 105.519 101.871 103.479 101.871 100.962C101.871 98.4451 100.092 96.4048 97.8968 96.4048C95.7019 96.4048 93.9226 98.4451 93.9226 100.962C93.9226 103.479 95.7019 105.519 97.8968 105.519Z" fill="white"/>
<path d="M97.6282 113.154C97.9155 112.333 95.6938 110.877 92.6658 109.9C89.6378 108.923 86.9503 108.796 86.663 109.616C86.3757 110.436 88.5975 111.893 91.6254 112.87C94.6534 113.847 97.3409 113.974 97.6282 113.154Z" fill="white"/>
<path d="M98.6244 148.083C98.6244 148.083 98.046 143.83 100.994 146.91C101.507 147.447 101.806 148.137 101.871 148.862C102.02 150.608 102.477 154.243 103.662 155.416C105.239 156.983 116.956 172.741 129.98 170.189C129.98 170.189 134.616 171.075 146.548 159.391C146.548 159.391 149.123 157.959 152.174 146.489C152.174 146.489 153.76 142.998 155.7 146.677C155.7 146.677 150.354 163.331 148.022 164.826C145.242 166.608 143.675 170.001 140.857 171.344C139.495 171.988 133.562 176.358 127.078 176.223C120.1 176.08 112.571 171.38 112.124 170.404C112.124 170.404 108.149 168.165 102.99 159.991C97.1504 150.742 98.6244 148.083 98.6244 148.083Z" fill="#231F20"/>
<path d="M51.522 92.8499C51.522 92.8499 44.1613 93.0558 42.0902 94.1033C40.0192 95.1509 50.8223 95.885 50.8223 95.885C50.8223 95.885 51.2514 93.7541 51.522 92.8499Z" fill="#231F20"/>
<path d="M104.343 75.0065C104.343 75.0065 109.829 108.483 142.686 74.4066L145.858 79.4295C145.858 79.4295 141.595 91.5881 154.991 81.2828L155.7 82.778C155.7 82.778 155.299 86.3683 161.223 79.9398C161.223 79.9398 158.891 85.1686 157.799 86.0639C157.519 86.2967 157.202 86.4578 156.876 86.5653C155.896 86.9055 154.795 86.619 154.058 85.9117C154.058 85.9117 152.575 88.5977 150.942 89.681C149.524 90.6211 142.882 92.367 141.837 87.6039C141.837 87.6039 104.119 114.598 100.854 74.8454L107.627 69.1689" fill="#231F20"/>
<path d="M63.3138 74.6661V78.3549C63.3138 78.3549 35.2238 46.1497 63.3138 15.6636C63.3138 15.6636 71.85 6.07462 78.2591 15.6636C78.2591 15.6636 74.798 47.3763 82.4199 55.9805C90.0418 64.5846 82.4199 54.5032 82.4199 54.5032L80.694 58.192C80.694 58.192 69.1818 50.9666 73.4732 21.0446C73.8557 18.3855 70.7771 16.5142 68.4728 18.0273C60.9349 22.9785 50.3743 36.883 63.3231 74.6661H63.3138Z" fill="#231F20"/>
<path d="M168.976 58.192C168.976 58.192 180.488 50.9666 176.196 21.0446C175.814 18.3855 178.893 16.5142 181.197 18.0273C188.735 22.9785 199.295 36.883 186.347 74.6661V78.3549C186.347 78.3549 214.437 46.1497 186.347 15.6636C186.347 15.6636 177.81 6.07462 171.401 15.6636C171.401 15.6636 174.862 47.3763 167.24 55.9805" fill="#231F20"/>
<path d="M194.058 24.4586L188.936 27.0945C186.842 28.1717 186.055 30.6735 187.178 32.6825L188.84 35.6572C189.962 37.6662 192.569 38.4216 194.662 37.3444L199.785 34.7085C201.878 33.6313 202.665 31.1295 201.542 29.1205L199.88 26.1457C198.758 24.1368 196.151 23.3814 194.058 24.4586Z" fill="#EE417D" stroke="#231F20" stroke-width="5" stroke-miterlimit="10"/>
<path d="M59.8247 120.552C59.8247 120.552 46.1482 144.502 66.663 158.397C66.663 158.397 68.5101 176.277 75.4603 180.593C75.4603 180.593 67.0921 188.212 79.4719 203.683L74.8913 237.437C74.5181 239.595 76.2533 241.565 78.5389 241.565C80.4328 241.565 82.028 240.186 82.2146 238.378C83.0263 230.794 84.0711 211.768 86.478 207.498C89.51 202.117 91.5344 196.959 91.5344 196.959C91.5344 196.959 66.9335 195.616 91.5344 175.445C91.5344 175.445 69.1912 171.854 81.8041 147.421C81.8041 147.421 47.2864 149.74 70.6185 120.561C70.6185 120.561 75.9641 115.815 65.6834 113.801C55.4027 111.786 62.5208 98.1505 62.5208 98.1505C62.5208 98.1505 63.5843 93.8529 79.6958 86.6723C79.6958 86.6723 80.1436 82.6344 73.4919 81.5152C66.8402 80.396 78.2871 64.9247 78.2871 64.9247C78.2871 64.9247 84.9667 55.7386 104.054 54.1628C104.054 54.1628 83.8939 29.0934 119.401 44.8782L124.774 46.9912C124.774 46.9912 114.96 19.6477 139.719 47.4388C139.719 47.4388 153.834 24.0259 155.691 57.5292C155.691 57.5292 163.313 54.3866 168.453 58.6484C168.966 59.0781 169.489 59.4721 170.002 59.8392C176.541 64.4949 180.553 71.774 180.31 79.5813C180.208 82.7687 179.723 85.4099 178.501 86.2157C178.501 86.2157 209.623 104.149 182.969 117.597C182.969 117.597 205.826 152.569 175.702 148.979C175.702 148.979 179.751 152.345 180.18 155.031C180.609 157.717 177.689 171.174 165.486 178.345C165.486 178.345 189.481 206.369 166.83 198.294L171.737 203.227C171.737 203.227 174.125 227.374 174.321 237.849C174.358 240.034 176.262 241.762 178.538 241.708C180.973 241.646 182.82 239.577 182.503 237.258L178.277 205.017C178.277 205.017 187.708 202.09 178.51 188.875C178.51 188.875 181.784 185.508 184.816 157.717C184.816 157.717 190.153 157.941 192.504 155.702C192.504 155.702 205.602 142.702 195.946 120.543C195.946 120.543 214.324 106.835 190.199 88.4898C190.199 88.4898 197.644 83.5207 186.449 65.1395C175.254 46.7584 166.942 51.9871 166.942 51.9871C166.942 51.9871 164.721 49.122 160.057 51.235C160.057 51.235 164.264 27.0252 152.118 27.6967C139.971 28.3682 139.038 38.0557 139.038 38.0557C139.038 38.0557 128.758 21.4204 119.886 24.3392C111.014 27.2491 115.212 39.73 115.212 39.73C115.212 39.73 103.373 26.8014 97.3838 30.3917C91.3852 33.982 87.2617 37.1156 93.4096 49.4444C93.4096 49.4444 67.5586 47.027 64.5266 82.8672C64.5266 82.8672 43.5081 99.2876 58.2201 120.543" fill="#231F20"/>
<path d="M51.6898 91.8027C51.6898 91.8027 51.5405 91.5431 51.2886 91.1044C49.7867 88.5437 44.4504 79.9306 41.6143 81.2468C39.9351 82.0257 38.8809 84.1476 38.2372 86.0636C37.5935 87.9797 38.7223 89.842 40.4948 90.1106L51.6898 91.8117V91.8027Z" fill="#231F20"/>
<path d="M203.055 92.8499C203.055 92.8499 210.416 93.0558 212.487 94.1033C214.558 95.1509 203.755 95.885 203.755 95.885C203.755 95.885 203.325 93.7541 203.055 92.8499Z" fill="#231F20"/>
<path d="M202.878 91.8027C202.878 91.8027 203.027 91.5431 203.279 91.1044C204.781 88.5437 210.117 79.9306 212.953 81.2468C214.632 82.0257 215.687 84.1476 216.33 86.0636C216.974 87.9797 215.845 89.842 214.073 90.1106L202.878 91.8117V91.8027Z" fill="#231F20"/>
<path d="M27.2102 160.018C27.2102 160.018 31.0072 157.422 35.4012 158.147C35.4012 158.147 35.2053 147.752 37.7988 147.555C40.3923 147.358 41.2413 158.147 41.2413 158.147C41.2413 158.147 49.8707 158.872 50.1319 160.788C50.3931 162.704 42.3981 163.573 42.3981 163.573C42.3981 163.573 40.355 171.219 38.6757 172.141C36.9965 173.063 35.0001 164.432 35.0001 164.432C35.0001 164.432 24.4115 162.516 27.2102 160.018Z" fill="white"/>
<path d="M44.6276 204.964C44.6276 204.964 46.9319 203.075 49.6 203.603C49.6 203.603 49.4788 196.029 51.0554 195.886C52.632 195.742 53.1451 203.603 53.1451 203.603C53.1451 203.603 58.3881 204.132 58.5467 205.528C58.7053 206.925 53.8448 207.561 53.8448 207.561C53.8448 207.561 52.604 213.139 51.5871 213.801C50.5703 214.464 49.3575 208.188 49.3575 208.188C49.3575 208.188 42.9297 206.791 44.6276 204.973V204.964Z" fill="white"/>
<path d="M207.785 155.255C207.785 155.255 210.127 153.653 212.841 154.1C212.841 154.1 212.72 147.681 214.325 147.564C215.929 147.448 216.452 154.1 216.452 154.1C216.452 154.1 221.779 154.548 221.937 155.73C222.096 156.912 217.161 157.449 217.161 157.449C217.161 157.449 215.901 162.167 214.866 162.74C213.83 163.313 212.599 157.977 212.599 157.977C212.599 157.977 206.059 156.795 207.785 155.255Z" fill="white"/>
<path d="M191.3 199.019C191.3 199.019 195.181 195.975 199.668 196.825C199.668 196.825 199.463 184.622 202.113 184.398C204.762 184.174 205.63 196.825 205.63 196.825C205.63 196.825 214.446 197.676 214.707 199.923C214.968 202.17 206.805 203.191 206.805 203.191C206.805 203.191 204.716 212.162 203.008 213.246C201.301 214.329 199.258 204.203 199.258 204.203C199.258 204.203 188.446 201.955 191.3 199.028V199.019Z" fill="white"/>
<path d="M76.0199 59.0781C76.0199 59.0781 61.5504 45.3616 63.9854 24.2944L60.5989 32.8538C60.5989 32.8538 61.5784 51.235 73.3891 63.1608L76.0106 59.0781H76.0199Z" fill="#231F20"/>
<path d="M175.076 54.9776C175.076 54.9776 188.053 39.945 183.435 19.218L187.689 27.4103C187.689 27.4103 188.622 45.7915 178.118 58.7917L175.086 54.9776H175.076Z" fill="#231F20"/>
</g>
<defs>
<filter id="filter0_d_93_22983" x="0.6" y="0.6" width="249.8" height="278.8" filterUnits="userSpaceOnUse" color-interpolation-filters="sRGB">
<feFlood flood-opacity="0" result="BackgroundImageFix"/>
<feColorMatrix in="SourceAlpha" type="matrix" values="0 0 0 0 0 0 0 0 0 0 0 0 0 0 0 0 0 0 127 0" result="hardAlpha"/>
<feOffset dx="-1" dy="7"/>
<feGaussianBlur stdDeviation="4.2"/>
<feComposite in2="hardAlpha" operator="out"/>
<feColorMatrix type="matrix" values="0 0 0 0 0 0 0 0 0 0 0 0 0 0 0 0 0 0 0.25 0"/>
<feBlend mode="normal" in2="BackgroundImageFix" result="effect1_dropShadow_93_22983"/>
<feBlend mode="normal" in="SourceGraphic" in2="effect1_dropShadow_93_22983" result="shape"/>
</filter>
</defs>
</svg>
